<svg  viewBox="0 0 512 512" xmlns="http://www.w3.org/2000/svg"><g><g><path d="m496 84v28h-480v-28a19.994 19.994 0 0 1 20-20h440a19.994 19.994 0 0 1 20 20z" fill="#3e3d42"/><path d="m496 112v316a19.994 19.994 0 0 1 -20 20h-440a19.994 19.994 0 0 1 -20-20v-316z" fill="#d8d7da"/><rect fill="#ff5023" height="176" rx="20" width="208" x="152" y="168"/></g><g><path d="m296 384h-80a8 8 0 0 0 0 16h80a8 8 0 0 0 0-16z"/><path d="m312 360h-112a8 8 0 0 0 0 16h112a8 8 0 0 0 0-16z"/><path d="m340 160h-168a28.031 28.031 0 0 0 -28 28v136a28.031 28.031 0 0 0 28 28h168a28.031 28.031 0 0 0 28-28v-136a28.031 28.031 0 0 0 -28-28zm12 164a12.01 12.01 0 0 1 -12 12h-168a12.01 12.01 0 0 1 -12-12v-136a12.01 12.01 0 0 1 12-12h168a12.01 12.01 0 0 1 12 12z"/><path d="m272 216h-32a8 8 0 0 0 -8 8v64a8 8 0 0 0 8 8h32a8 8 0 0 0 8-8v-64a8 8 0 0 0 -8-8zm-8 64h-16v-48h16z"/><path d="m476 56h-440a28.031 28.031 0 0 0 -28 28v344a28.031 28.031 0 0 0 28 28h440a28.031 28.031 0 0 0 28-28v-344a28.031 28.031 0 0 0 -28-28zm12 372a12.01 12.01 0 0 1 -12 12h-440a12.01 12.01 0 0 1 -12-12v-308h464zm0-324h-464v-20a12.01 12.01 0 0 1 12-12h440a12.01 12.01 0 0 1 12 12z"/><path d="m336 224v64a8 8 0 0 1 -16 0v-24h-24a8 8 0 0 1 -8-8v-32a8 8 0 0 1 16 0v24h16v-24a8 8 0 0 1 16 0z"/><path d="m224 224v64a8 8 0 0 1 -16 0v-24h-24a8 8 0 0 1 -8-8v-32a8 8 0 0 1 16 0v24h16v-24a8 8 0 0 1 16 0z"/><path d="m40 96h8a8 8 0 0 0 0-16h-8a8 8 0 0 0 0 16z"/><path d="m72 96h8a8 8 0 0 0 0-16h-8a8 8 0 0 0 0 16z"/><path d="m104 96h8a8 8 0 0 0 0-16h-8a8 8 0 0 0 0 16z"/></g></g></svg>